<svg width="170" height="38" viewBox="0 0 170 38" fill="none" xmlns="http://www.w3.org/2000/svg">
<rect width="170" height="38" rx="8" fill="#484848" fill-opacity="0.2"></rect>
<rect x="0.5" y="0.5" width="169" height="37" rx="7.5" stroke="white" stroke-opacity="0.2"></rect>
<path opacity="0.8" d="M26.332 10.698H33.568V12.282H28.042V16.512H33.37V18.096H28.042V22.416H33.568V24H26.332V10.698ZM35.6601 14.118H37.2801V15.18C37.6581 14.712 38.0541 14.37 38.4681 14.172C38.8641 13.974 39.3861 13.884 39.9981 13.884C40.7361 13.884 41.3481 14.01 41.8341 14.298C42.3201 14.568 42.7521 15.018 43.1121 15.648C43.5261 15.036 43.9941 14.586 44.5341 14.298C45.0561 14.028 45.7041 13.884 46.4421 13.884C47.7201 13.884 48.6921 14.244 49.3761 14.982C50.0601 15.72 50.3841 16.8 50.3841 18.186V24H48.7101V18.366C48.7101 17.394 48.5121 16.656 48.1161 16.17C47.7021 15.666 47.1261 15.432 46.3341 15.432C45.5241 15.432 44.9121 15.684 44.4981 16.224C44.0841 16.746 43.8681 17.52 43.8681 18.564V24H42.1761V18.348C42.1761 17.394 41.9781 16.656 41.5641 16.17C41.1501 15.666 40.5561 15.432 39.7641 15.432C38.9721 15.432 38.3601 15.684 37.9641 16.206C37.5501 16.728 37.3521 17.502 37.3521 18.528V24H35.6601V14.118ZM52.5347 17.016C52.7867 16.368 53.1467 15.828 53.6147 15.36C54.0647 14.892 54.6227 14.532 55.2527 14.28C55.8827 14.01 56.5667 13.884 57.2867 13.884C58.1147 13.884 58.8167 14.028 59.3927 14.316C59.9687 14.604 60.5087 15.072 60.9767 15.72V14.118H62.5967V24H60.9767V22.416C60.4547 23.064 59.9327 23.532 59.3747 23.82C58.8167 24.09 58.1507 24.234 57.3407 24.234C56.6027 24.234 55.9007 24.108 55.2707 23.856C54.6407 23.586 54.0827 23.226 53.6147 22.776C53.1647 22.308 52.7867 21.768 52.5347 21.138C52.2827 20.508 52.1387 19.824 52.1387 19.086C52.1387 18.33 52.2827 17.646 52.5347 17.016ZM54.1187 20.49C54.3167 20.94 54.5687 21.318 54.8927 21.642C55.1987 21.966 55.5767 22.218 56.0267 22.416C56.4587 22.596 56.9447 22.686 57.4487 22.686C57.9527 22.686 58.4207 22.596 58.8527 22.416C59.2667 22.218 59.6447 21.966 59.9507 21.642C60.2747 21.318 60.5087 20.94 60.6887 20.508C60.8687 20.058 60.9407 19.572 60.9407 19.05C60.9407 18.528 60.8507 18.042 60.6707 17.592C60.4907 17.16 60.2387 16.782 59.9327 16.458C59.6087 16.134 59.2307 15.882 58.7807 15.702C58.3487 15.522 57.8807 15.432 57.3587 15.432C56.8547 15.432 56.4047 15.522 55.9727 15.702C55.5587 15.9 55.1807 16.152 54.8567 16.476C54.5507 16.818 54.2987 17.196 54.1187 17.628C53.9387 18.078 53.8487 18.564 53.8487 19.068C53.8487 19.572 53.9387 20.058 54.1187 20.49ZM64.7519 14.118H66.4439V24H64.7519V14.118ZM64.7519 10.698H66.4439V12.966H64.7519V10.698ZM68.6015 10.698H70.2935V24H68.6015V10.698ZM87.2709 20.976C86.7489 22.056 86.0829 22.884 85.2729 23.424C84.4809 23.964 83.5089 24.234 82.4109 24.234C81.6549 24.234 80.9529 24.108 80.3049 23.838C79.6569 23.568 79.0809 23.208 78.6129 22.74C78.1269 22.254 77.7489 21.714 77.4609 21.084C77.1909 20.454 77.0469 19.77 77.0469 19.032C77.0469 18.312 77.1909 17.646 77.4609 17.016C77.7309 16.386 78.1089 15.828 78.5769 15.378C79.0629 14.91 79.6209 14.55 80.2509 14.28C80.8989 14.01 81.5829 13.884 82.3209 13.884C83.4729 13.884 84.4809 14.172 85.3449 14.766C86.2269 15.36 86.8569 16.17 87.2529 17.214H85.3629C85.0209 16.62 84.6069 16.188 84.0849 15.882C83.5809 15.576 82.9869 15.432 82.3029 15.432C81.7989 15.432 81.3309 15.522 80.8989 15.702C80.4669 15.9 80.0889 16.152 79.7829 16.476C79.4589 16.8 79.2069 17.178 79.0269 17.628C78.8469 18.06 78.7569 18.546 78.7569 19.05C78.7569 19.572 78.8469 20.04 79.0269 20.49C79.2249 20.922 79.4769 21.3 79.8009 21.624C80.1249 21.966 80.5029 22.218 80.9529 22.398C81.3849 22.596 81.8529 22.686 82.3569 22.686C83.0049 22.686 83.5449 22.56 84.0129 22.29C84.4629 22.038 84.9129 21.588 85.3629 20.976H87.2709ZM88.9565 16.998C89.2265 16.368 89.5865 15.828 90.0725 15.36C90.5405 14.892 91.0985 14.532 91.7465 14.28C92.3765 14.01 93.0785 13.884 93.8345 13.884C94.5545 13.884 95.2205 14.01 95.8505 14.28C96.4805 14.55 97.0205 14.91 97.4705 15.378C97.9385 15.846 98.2985 16.404 98.5505 17.034C98.8205 17.664 98.9465 18.348 98.9465 19.086C98.9465 19.824 98.8205 20.49 98.5685 21.12C98.2985 21.75 97.9385 22.29 97.4885 22.758C97.0385 23.208 96.4985 23.568 95.8685 23.838C95.2385 24.108 94.5725 24.234 93.8345 24.234C93.0965 24.234 92.3945 24.108 91.7465 23.838C91.1165 23.586 90.5585 23.208 90.0905 22.74C89.6045 22.29 89.2445 21.732 88.9745 21.102C88.7045 20.472 88.5605 19.788 88.5605 19.068C88.5605 18.33 88.7045 17.646 88.9565 16.998ZM95.1845 22.416C95.5985 22.236 95.9585 21.984 96.2645 21.66C96.5705 21.354 96.8225 20.958 96.9845 20.526C97.1645 20.094 97.2545 19.608 97.2545 19.086C97.2545 18.564 97.1645 18.078 96.9845 17.628C96.8225 17.178 96.5705 16.782 96.2465 16.458C95.9405 16.134 95.5625 15.882 95.1305 15.702C94.6985 15.522 94.2305 15.432 93.7265 15.432C93.2405 15.432 92.7905 15.522 92.3585 15.702C91.9445 15.9 91.5845 16.152 91.2785 16.476C90.9545 16.8 90.7205 17.196 90.5405 17.628C90.3605 18.078 90.2705 18.564 90.2705 19.068C90.2705 19.59 90.3605 20.076 90.5405 20.508C90.7205 20.94 90.9725 21.318 91.2785 21.642C91.6025 21.966 91.9805 22.218 92.4125 22.416C92.8445 22.596 93.3125 22.686 93.8165 22.686C94.3025 22.686 94.7525 22.596 95.1845 22.416ZM100.717 14.118H102.337V15.63C102.751 15.054 103.255 14.622 103.885 14.316C104.497 14.028 105.217 13.884 106.009 13.884C106.729 13.884 107.413 14.01 108.043 14.28C108.673 14.532 109.213 14.892 109.663 15.36C110.113 15.828 110.473 16.368 110.725 16.998C110.995 17.628 111.121 18.312 111.121 19.05C111.121 19.788 110.995 20.472 110.725 21.102C110.455 21.732 110.095 22.29 109.645 22.74C109.177 23.208 108.637 23.568 108.007 23.838C107.377 24.108 106.711 24.234 105.973 24.234C105.217 24.234 104.551 24.09 103.957 23.82C103.363 23.532 102.841 23.118 102.409 22.56V27.42H100.717V14.118ZM107.269 22.416C107.701 22.218 108.079 21.966 108.403 21.66C108.709 21.336 108.961 20.94 109.141 20.508C109.321 20.076 109.411 19.608 109.411 19.086C109.411 18.564 109.321 18.078 109.141 17.628C108.961 17.178 108.709 16.782 108.403 16.458C108.079 16.134 107.701 15.882 107.269 15.702C106.819 15.522 106.333 15.432 105.811 15.432C105.325 15.432 104.857 15.522 104.425 15.702C104.011 15.9 103.633 16.152 103.309 16.476C102.985 16.818 102.751 17.196 102.571 17.646C102.391 18.078 102.301 18.564 102.301 19.068C102.301 19.59 102.391 20.058 102.571 20.508C102.751 20.94 103.003 21.318 103.327 21.66C103.651 21.984 104.029 22.236 104.461 22.416C104.893 22.596 105.361 22.686 105.883 22.686C106.369 22.686 106.837 22.596 107.269 22.416ZM112.863 14.118H114.555V24H112.863V14.118ZM112.863 10.698H114.555V12.966H112.863V10.698ZM126.343 20.85C126.181 21.354 125.929 21.804 125.605 22.236C125.299 22.632 124.921 22.992 124.507 23.298C124.093 23.586 123.643 23.82 123.139 23.982C122.635 24.144 122.113 24.234 121.573 24.234C120.835 24.234 120.151 24.108 119.503 23.838C118.855 23.568 118.297 23.19 117.829 22.722C117.361 22.254 116.983 21.714 116.713 21.084C116.443 20.454 116.299 19.77 116.299 19.032C116.299 18.312 116.443 17.646 116.713 17.016C116.965 16.386 117.325 15.846 117.793 15.378C118.261 14.91 118.801 14.55 119.431 14.28C120.061 14.01 120.745 13.884 121.447 13.884C122.167 13.884 122.851 14.01 123.481 14.28C124.111 14.55 124.651 14.928 125.119 15.378C125.587 15.846 125.965 16.386 126.235 17.016C126.505 17.646 126.631 18.312 126.631 19.032C126.631 19.158 126.631 19.266 126.613 19.374C126.613 19.464 126.595 19.59 126.559 19.698H118.063C118.099 20.13 118.225 20.526 118.405 20.886C118.621 21.246 118.873 21.57 119.179 21.84C119.485 22.11 119.845 22.308 120.241 22.452C120.655 22.614 121.087 22.686 121.537 22.686C122.203 22.686 122.797 22.524 123.337 22.2C123.859 21.876 124.273 21.426 124.561 20.85H126.343ZM124.921 18.204C124.723 17.322 124.309 16.638 123.715 16.152C123.103 15.666 122.347 15.432 121.465 15.432C121.033 15.432 120.637 15.486 120.259 15.612C119.881 15.738 119.557 15.936 119.251 16.17C118.963 16.422 118.711 16.71 118.513 17.052C118.297 17.394 118.153 17.772 118.063 18.204H124.921ZM128.296 16.998C128.566 16.368 128.926 15.81 129.394 15.342C129.844 14.874 130.402 14.514 131.014 14.244C131.662 13.974 132.328 13.83 133.066 13.83C133.786 13.83 134.47 13.974 135.082 14.244C135.694 14.532 136.234 14.928 136.684 15.45V10.698H138.358V24H136.738V22.38C136.234 23.046 135.712 23.514 135.154 23.802C134.596 24.09 133.93 24.234 133.156 24.234C132.418 24.234 131.716 24.108 131.086 23.838C130.438 23.568 129.88 23.208 129.412 22.74C128.944 22.29 128.584 21.75 128.314 21.12C128.044 20.49 127.9 19.806 127.9 19.068C127.9 18.33 128.044 17.628 128.296 16.998ZM129.898 20.454C130.078 20.904 130.33 21.3 130.672 21.624C130.996 21.948 131.374 22.218 131.824 22.398C132.256 22.596 132.742 22.686 133.246 22.686C133.732 22.686 134.2 22.596 134.614 22.398C135.046 22.2 135.424 21.948 135.73 21.606C136.054 21.282 136.306 20.886 136.486 20.454C136.684 20.004 136.774 19.536 136.774 19.032C136.774 18.51 136.684 18.042 136.486 17.592C136.306 17.142 136.036 16.764 135.712 16.44C135.388 16.116 134.992 15.846 134.542 15.666C134.11 15.486 133.624 15.378 133.102 15.378C132.616 15.378 132.166 15.486 131.734 15.666C131.302 15.846 130.942 16.116 130.618 16.44C130.312 16.764 130.06 17.16 129.88 17.592C129.7 18.042 129.61 18.51 129.61 19.014C129.61 19.536 129.7 20.004 129.898 20.454ZM141.324 10.698H143.016V20.508H141.324V10.698ZM141.324 21.714H143.016V24H141.324V21.714Z" fill="white"></path>
</svg>